<svg width="24" height="24" viewBox="0 0 24 24" fill="none" xmlns="http://www.w3.org/2000/svg">
<g clip-path="url(#clip0_12151_4785)">
<path d="M23.3114 11.7225C22.9294 11.7225 22.6238 12.0281 22.6238 12.4101V18.6647C22.6238 20.3659 21.2384 21.7462 19.5423 21.7462H4.45573C2.75454 21.7462 1.37424 20.3608 1.37424 18.6647V12.3082C1.37424 11.9262 1.06863 11.6206 0.68663 11.6206C0.304626 11.6206 -0.000976562 11.9262 -0.000976562 12.3082V18.6647C-0.000976562 21.1249 2.00072 23.1215 4.45573 23.1215H19.5423C22.0024 23.1215 23.999 21.1198 23.999 18.6647V12.4101C23.999 12.0332 23.6934 11.7225 23.3114 11.7225Z" fill="white"/>
<path d="M11.5162 17.6613C11.6486 17.7938 11.8268 17.8651 12 17.8651C12.1732 17.8651 12.3515 17.7989 12.4839 17.6613L16.854 13.2912C17.124 13.0213 17.124 12.5883 16.854 12.3184C16.5841 12.0484 16.1511 12.0484 15.8812 12.3184L12.6876 15.517V1.56627C12.6876 1.18426 12.382 0.878662 12 0.878662C11.618 0.878662 11.3124 1.18426 11.3124 1.56627V15.517L8.11377 12.3184C7.84382 12.0484 7.41089 12.0484 7.14094 12.3184C6.87099 12.5883 6.87099 13.0213 7.14094 13.2912L11.5162 17.6613Z" fill="white"/>
</g>
<defs>
<clipPath id="clip0_12151_4785">
<rect width="24" height="24" fill="white" transform="translate(-0.000976562)"/>
</clipPath>
</defs>
</svg>
