<svg width="229" height="156" viewBox="0 0 229 156" fill="none" xmlns="http://www.w3.org/2000/svg">
<path d="M114 114.31V142.772L139.875 150.535" stroke="black" stroke-width="1.4375" stroke-linecap="round" stroke-linejoin="round"/>
<path d="M114 142.773L88.125 150.536" stroke="black" stroke-width="1.4375" stroke-linecap="round" stroke-linejoin="round"/>
<path d="M186.45 0.460938H148.725C146.31 0.465754 143.929 1.02338 141.764 2.09106L137.987 4.00581C135.821 5.07349 133.44 5.63112 131.026 5.63594H96.9746C94.5605 5.63112 92.1795 5.07349 90.0143 4.00581L86.2365 2.09106C84.0713 1.02338 81.6903 0.465754 79.2761 0.460938H41.5504C37.4329 0.460938 33.4841 2.0966 30.5726 5.0081C27.6611 7.91961 26.0254 11.8685 26.0254 15.9859V98.7859C26.0254 102.903 27.6611 106.852 30.5726 109.764C33.4841 112.675 37.4329 114.311 41.5504 114.311H186.45C190.568 114.311 194.517 112.675 197.428 109.764C200.34 106.852 201.975 102.903 201.975 98.7859V15.9859C201.975 11.8685 200.34 7.91961 197.428 5.0081C194.517 2.0966 190.568 0.460938 186.45 0.460938Z" stroke="black" stroke-width="1.4375" stroke-linecap="round" stroke-linejoin="round"/>
<rect x="51.4688" y="15.8418" width="125.062" height="8.625" rx="4.3125" fill="black"/>
<path d="M51.4688 20.1543H176.531V88.4355C176.531 94.7868 171.383 99.9355 165.031 99.9355H62.9688C56.6175 99.9355 51.4688 94.7868 51.4688 88.4355V20.1543Z" fill="black" fill-opacity="0.05"/>
<g clip-path="url(#clip0_12259_967)">
<path d="M151.493 34.5596L134.067 47.7611L115.408 43.1846L105.551 67.4754L90.5896 61.4907L81.4365 83.6693L96.5743 74.1642L116.465 78.5647L131.778 59.2024L149.38 53.2177" stroke="black" stroke-width="0.598958" stroke-miterlimit="10"/>
</g>
<g clip-path="url(#clip1_12259_967)">
<path d="M202.73 115.823L210.816 139.272C211.085 140.135 212.325 140.135 212.595 139.272L216.314 128.275L227.365 124.556C228.227 124.286 228.227 123.046 227.365 122.777L203.916 114.637C203.215 114.367 202.46 115.122 202.73 115.823Z" fill="black" fill-opacity="0.5"/>
</g>
<defs>
<clipPath id="clip0_12259_967">
<rect width="86.25" height="86.25" fill="white" transform="translate(70.875 15.8438)"/>
</clipPath>
<clipPath id="clip1_12259_967">
<rect width="25.875" height="25.875" fill="white" transform="translate(202.406 114.312)"/>
</clipPath>
</defs>
</svg>
