<svg width="22" height="28" viewBox="0 0 22 28" fill="none" xmlns="http://www.w3.org/2000/svg">
<g clip-path="url(#clip0_12060_3845)">
<mask id="mask0_12060_3845" style="mask-type:luminance" maskUnits="userSpaceOnUse" x="0" y="0" width="21" height="28">
<path d="M13.3689 0L2.70094 0C1.66552 0 0.818359 0.847159 0.818359 1.88258L0.818359 25.7285C0.818359 26.764 1.66552 27.6111 2.70094 27.6111H19.0166C20.052 27.6111 20.8992 26.764 20.8992 25.7285V7.5303L13.3689 0Z" fill="white"/>
</mask>
<g mask="url(#mask0_12060_3845)">
<path d="M13.3689 0L2.70094 0C1.66552 0 0.818359 0.847159 0.818359 1.88258L0.818359 25.7285C0.818359 26.764 1.66552 27.6111 2.70094 27.6111H19.0166C20.052 27.6111 20.8992 26.764 20.8992 25.7285V7.5303L16.5065 4.39268L13.3689 0Z" fill="#F4B400"/>
</g>
<mask id="mask1_12060_3845" style="mask-type:luminance" maskUnits="userSpaceOnUse" x="0" y="0" width="21" height="28">
<path d="M13.3689 0L2.70094 0C1.66552 0 0.818359 0.847159 0.818359 1.88258L0.818359 25.7285C0.818359 26.764 1.66552 27.6111 2.70094 27.6111H19.0166C20.052 27.6111 20.8992 26.764 20.8992 25.7285V7.5303L13.3689 0Z" fill="white"/>
</mask>
<g mask="url(#mask1_12060_3845)">
<path d="M14.937 12.5505H6.77918C6.26147 12.5505 5.83789 12.9741 5.83789 13.4918L5.83789 21.6497C5.83789 22.1674 6.26147 22.5909 6.77918 22.5909H14.937C15.4547 22.5909 15.8783 22.1674 15.8783 21.6497V13.4918C15.8783 12.9741 15.4547 12.5505 14.937 12.5505ZM14.6232 19.7671H7.09294V15.3744H14.6232V19.7671Z" fill="#F1F1F1"/>
</g>
<mask id="mask2_12060_3845" style="mask-type:luminance" maskUnits="userSpaceOnUse" x="0" y="0" width="21" height="28">
<path d="M13.3689 0L2.70094 0C1.66552 0 0.818359 0.847159 0.818359 1.88258L0.818359 25.7285C0.818359 26.764 1.66552 27.6111 2.70094 27.6111H19.0166C20.052 27.6111 20.8992 26.764 20.8992 25.7285V7.5303L13.3689 0Z" fill="white"/>
</mask>
<g mask="url(#mask2_12060_3845)">
<path d="M13.918 6.97998L20.8976 13.9581V7.53063L13.918 6.97998Z" fill="url(#paint0_linear_12060_3845)"/>
</g>
<mask id="mask3_12060_3845" style="mask-type:luminance" maskUnits="userSpaceOnUse" x="0" y="0" width="21" height="28">
<path d="M13.3689 0L2.70094 0C1.66552 0 0.818359 0.847159 0.818359 1.88258L0.818359 25.7285C0.818359 26.764 1.66552 27.6111 2.70094 27.6111H19.0166C20.052 27.6111 20.8992 26.764 20.8992 25.7285V7.5303L13.3689 0Z" fill="white"/>
</mask>
<g mask="url(#mask3_12060_3845)">
<path d="M13.3701 -0.00012207V5.64761C13.3701 6.68773 14.2126 7.53018 15.2527 7.53018H20.9004L13.3701 -0.00012207Z" fill="#FADA80"/>
</g>
<mask id="mask4_12060_3845" style="mask-type:luminance" maskUnits="userSpaceOnUse" x="0" y="0" width="21" height="28">
<path d="M13.3689 0L2.70094 0C1.66552 0 0.818359 0.847159 0.818359 1.88258L0.818359 25.7285C0.818359 26.764 1.66552 27.6111 2.70094 27.6111H19.0166C20.052 27.6111 20.8992 26.764 20.8992 25.7285V7.5303L13.3689 0Z" fill="white"/>
</mask>
<g mask="url(#mask4_12060_3845)">
<path d="M13.3682 0.00012207V0.157003L20.7416 7.53043H20.8985L13.3682 0.00012207Z" fill="white" fill-opacity="0.1"/>
</g>
<mask id="mask5_12060_3845" style="mask-type:luminance" maskUnits="userSpaceOnUse" x="0" y="0" width="21" height="28">
<path d="M13.3689 0L2.70094 0C1.66552 0 0.818359 0.847159 0.818359 1.88258L0.818359 25.7285C0.818359 26.764 1.66552 27.6111 2.70094 27.6111H19.0166C20.052 27.6111 20.8992 26.764 20.8992 25.7285V7.5303L13.3689 0Z" fill="white"/>
</mask>
<g mask="url(#mask5_12060_3845)">
<path d="M2.70094 0C1.66552 0 0.818359 0.847159 0.818359 1.88258L0.818359 2.03946C0.818359 1.00404 1.66552 0.156881 2.70094 0.156881L13.3689 0.156881V0L2.70094 0Z" fill="white" fill-opacity="0.2"/>
</g>
<mask id="mask6_12060_3845" style="mask-type:luminance" maskUnits="userSpaceOnUse" x="0" y="0" width="21" height="28">
<path d="M13.3689 0L2.70094 0C1.66552 0 0.818359 0.847159 0.818359 1.88258L0.818359 25.7285C0.818359 26.764 1.66552 27.6111 2.70094 27.6111H19.0166C20.052 27.6111 20.8992 26.764 20.8992 25.7285V7.5303L13.3689 0Z" fill="white"/>
</mask>
<g mask="url(#mask6_12060_3845)">
<path d="M19.0166 27.4545H2.70094C1.66552 27.4545 0.818359 26.6073 0.818359 25.5719V25.7288C0.818359 26.7642 1.66552 27.6114 2.70094 27.6114H19.0166C20.052 27.6114 20.8992 26.7642 20.8992 25.7288V25.5719C20.8992 26.6073 20.052 27.4545 19.0166 27.4545Z" fill="#BF360C" fill-opacity="0.2"/>
</g>
<mask id="mask7_12060_3845" style="mask-type:luminance" maskUnits="userSpaceOnUse" x="0" y="0" width="21" height="28">
<path d="M13.3689 0L2.70094 0C1.66552 0 0.818359 0.847159 0.818359 1.88258L0.818359 25.7285C0.818359 26.764 1.66552 27.6111 2.70094 27.6111H19.0166C20.052 27.6111 20.8992 26.764 20.8992 25.7285V7.5303L13.3689 0Z" fill="white"/>
</mask>
<g mask="url(#mask7_12060_3845)">
<path d="M15.2507 7.5304C14.2106 7.5304 13.3682 6.68795 13.3682 5.64783V5.80471C13.3682 6.84483 14.2106 7.68728 15.2507 7.68728H20.8985V7.5304H15.2507Z" fill="#BF360C" fill-opacity="0.1"/>
</g>
<path d="M13.3689 0L2.70094 0C1.66552 0 0.818359 0.847159 0.818359 1.88258L0.818359 25.7285C0.818359 26.764 1.66552 27.6111 2.70094 27.6111H19.0166C20.052 27.6111 20.8992 26.764 20.8992 25.7285V7.5303L13.3689 0Z" fill="url(#paint1_radial_12060_3845)"/>
</g>
<defs>
<linearGradient id="paint0_linear_12060_3845" x1="362.938" y1="66.8945" x2="362.938" y2="704.885" gradientUnits="userSpaceOnUse">
<stop stop-color="#BF360C" stop-opacity="0.2"/>
<stop offset="1" stop-color="#BF360C" stop-opacity="0.02"/>
</linearGradient>
<radialGradient id="paint1_radial_12060_3845" cx="0" cy="0" r="1" gradientUnits="userSpaceOnUse" gradientTransform="translate(64.4354 54.5717) scale(3238 3238)">
<stop stop-color="white" stop-opacity="0.1"/>
<stop offset="1" stop-color="white" stop-opacity="0"/>
</radialGradient>
<clipPath id="clip0_12060_3845">
<rect width="20.3636" height="28" fill="white" transform="translate(0.818359)"/>
</clipPath>
</defs>
</svg>
