<svg width="24" height="24" viewBox="0 0 24 24" fill="none" xmlns="http://www.w3.org/2000/svg">
<path d="M18.9832 8.57147H5.08608C4.6975 8.57147 4.40039 8.86862 4.40039 9.25717V19.3143C4.40039 19.7029 4.69754 20 5.08608 20H18.9832C19.3718 20 19.6689 19.7029 19.6689 19.3143V9.25717C19.6689 8.86862 19.3718 8.57147 18.9832 8.57147Z" fill="#259DCD"/>
<path d="M6.22866 7.65715H17.8401C18.2287 7.65715 18.5258 7.36 18.5258 6.97146C18.5258 6.58292 18.2286 6.28577 17.8401 6.28577H6.22866C5.84008 6.28577 5.54297 6.58292 5.54297 6.97146C5.54297 7.36 5.84008 7.65715 6.22866 7.65715Z" fill="#259DCD"/>
<path d="M7.37124 5.37131H16.6969C17.0855 5.37131 17.3826 5.07416 17.3826 4.68562C17.3826 4.29707 17.0855 3.99988 16.6969 3.99988H7.37124C6.98265 3.99988 6.68555 4.29703 6.68555 4.68557C6.68555 5.07412 6.98265 5.37131 7.37124 5.37131Z" fill="#259DCD"/>
</svg>
