<svg width="24" height="24" viewBox="0 0 24 24" fill="none" xmlns="http://www.w3.org/2000/svg">
<path d="M7.5 15.8574C7.85501 15.8574 8.14254 16.145 8.14258 16.5V20.3574C8.14243 20.7123 7.85496 21 7.5 21H3.64258C3.28776 20.9998 3.00015 20.7122 3 20.3574V16.5C3 16.1451 3.28767 15.8576 3.64258 15.8574H7.5ZM20.3574 17.7861C20.7123 17.7863 21 18.0738 21 18.4287C20.9999 18.7836 20.7123 19.0711 20.3574 19.0713H10.0713C9.71635 19.0712 9.42879 18.7836 9.42871 18.4287C9.42871 18.0737 9.7163 17.7862 10.0713 17.7861H20.3574ZM7.5 9.42871C7.85497 9.42871 8.14247 9.71633 8.14258 10.0713V13.9287C8.14249 14.2837 7.855 14.5713 7.5 14.5713H3.64258C3.28772 14.5711 3.00008 14.2836 3 13.9287V10.0713C3.00007 9.71643 3.28771 9.42887 3.64258 9.42871H7.5ZM20.3574 11.3574C20.7123 11.3576 21 11.645 21 12C21 12.3549 20.7123 12.6424 20.3574 12.6426H10.0713C9.71634 12.6425 9.42871 12.355 9.42871 12C9.42872 11.645 9.71631 11.3575 10.0713 11.3574H20.3574ZM7.5 3C7.85492 3 8.14238 3.28766 8.14258 3.64258V7.5C8.14258 7.85505 7.85505 8.14258 7.5 8.14258H3.64258C3.28766 8.14242 3 7.85496 3 7.5V3.64258C3.00016 3.28776 3.28776 3.00016 3.64258 3H7.5ZM20.3574 4.92871C20.7123 4.92886 20.9999 5.21641 21 5.57129C21 5.92625 20.7123 6.21372 20.3574 6.21387H10.0713C9.7163 6.21379 9.42871 5.92629 9.42871 5.57129C9.4288 5.21636 9.71636 4.92879 10.0713 4.92871H20.3574Z" fill="#259DCD"/>
</svg>
