<svg width="24" height="24" viewBox="0 0 24 24" fill="none" xmlns="http://www.w3.org/2000/svg">
<path d="M12.0017 18.9222C12.0487 18.9222 12.0951 18.913 12.1385 18.895C12.1819 18.8771 12.2213 18.8508 12.2545 18.8176C12.2877 18.7844 12.314 18.745 12.3319 18.7016C12.3499 18.6582 12.3591 18.6118 12.3591 18.5648V12.3572L18.568 12.3559C18.6628 12.3559 18.7537 12.3183 18.8207 12.2512C18.8877 12.1842 18.9254 12.0933 18.9254 11.9986C18.9254 11.9038 18.8877 11.8129 18.8207 11.7459C18.7537 11.6789 18.6628 11.6412 18.568 11.6412L12.3591 11.6425L12.3578 5.43356C12.3578 5.33878 12.3202 5.24789 12.2532 5.18087C12.1861 5.11385 12.0952 5.0762 12.0005 5.0762C11.9057 5.0762 11.8148 5.11385 11.7478 5.18087C11.6808 5.24789 11.6431 5.33878 11.6431 5.43356L11.6444 11.6425L5.43547 11.6437C5.34578 11.6507 5.26202 11.6912 5.20091 11.7572C5.13981 11.8232 5.10586 11.9099 5.10586 11.9998C5.10586 12.0898 5.13981 12.1764 5.20091 12.2424C5.26202 12.3084 5.34578 12.349 5.43547 12.3559L11.6444 12.3572L11.6456 18.5661C11.6459 18.6604 11.6835 18.7508 11.7502 18.8176C11.817 18.8843 11.9074 18.9219 12.0017 18.9222Z" fill="#259DCD"/>
</svg>
