<svg width="36" height="36" viewBox="0 0 36 36" fill="none" xmlns="http://www.w3.org/2000/svg">
<path fill-rule="evenodd" clip-rule="evenodd" d="M18.7936 17.2051C18.7936 17.2051 16.5961 15.0061 14.3986 12.8101C11.5351 9.94507 6.88965 9.94507 4.02615 12.8101L4.02165 12.8131C1.15815 15.6781 1.15815 20.3221 4.02165 23.1871L4.02615 23.1901C6.88965 26.0551 11.5351 26.0551 14.3986 23.1901C14.8711 22.7176 15.3436 22.2466 15.7936 21.7951C16.2331 21.3571 16.2331 20.6431 15.7936 20.2051C15.3556 19.7656 14.6416 19.7656 14.2036 20.2051C13.7521 20.6551 13.2811 21.1276 12.8086 21.6001C10.8226 23.5861 7.60215 23.5861 5.61615 21.6001L5.61315 21.5956C3.62715 19.6096 3.62715 16.3906 5.61315 14.4046L5.61615 14.4001C7.60215 12.4141 10.8226 12.4141 12.8086 14.4001C15.0046 16.5976 17.2036 18.7951 17.2036 18.7951C17.6416 19.2346 18.3556 19.2346 18.7936 18.7951C19.2331 18.3571 19.2331 17.6431 18.7936 17.2051Z" fill="white"/>
<path fill-rule="evenodd" clip-rule="evenodd" d="M21.7936 15.795C22.2451 15.345 22.7161 14.8725 23.1886 14.4C25.1746 12.414 28.3951 12.414 30.3811 14.4C30.3811 14.4015 30.3826 14.403 30.3841 14.4045C32.3701 16.3905 32.3701 19.6095 30.3841 21.5955C30.3826 21.597 30.3811 21.5985 30.3811 21.6C28.3951 23.586 25.1746 23.586 23.1886 21.6C20.9926 19.4025 18.7936 17.205 18.7936 17.205C18.3556 16.7655 17.6416 16.7655 17.2036 17.205C16.7641 17.643 16.7641 18.357 17.2036 18.795C17.2036 18.795 19.4011 20.994 21.5986 23.19C24.4621 26.055 29.1076 26.055 31.9711 23.19C31.9726 23.1885 31.9741 23.1885 31.9756 23.187C34.8391 20.322 34.8391 15.678 31.9756 12.813C31.9741 12.8115 31.9726 12.8115 31.9711 12.81C29.1076 9.945 24.4621 9.945 21.5986 12.81C21.1261 13.2825 20.6536 13.7535 20.2036 14.205C19.7641 14.643 19.7641 15.357 20.2036 15.795C20.6416 16.2345 21.3556 16.2345 21.7936 15.795Z" fill="white"/>
</svg>
