<svg width="151" height="158" viewBox="0 0 151 158" fill="none" xmlns="http://www.w3.org/2000/svg">
<g clip-path="url(#clip0_12151_4385)">
<path d="M127.272 155.607H-45.2697C-51.561 155.6 -57.5926 153.082 -62.0411 148.608C-66.4897 144.132 -68.992 138.065 -68.999 131.736V26.2632C-68.992 19.9346 -66.4897 13.8671 -62.0411 9.392C-57.5926 4.91696 -51.561 2.39977 -45.2697 2.3927L127.272 2.3927C133.563 2.39977 139.595 4.91696 144.043 9.392C148.491 13.8671 150.994 19.9346 151.001 26.2632V131.736C150.994 138.065 148.491 144.132 144.043 148.608C139.595 153.082 133.563 155.6 127.272 155.607Z" fill="url(#paint0_linear_12151_4385)" fill-opacity="0.5"/>
<path d="M127.27 153.643H-45.2669C-51.0342 153.637 -56.5659 151.329 -60.6475 147.223C-64.7293 143.117 -67.0275 137.547 -67.0342 131.736V26.2646C-67.0275 20.4526 -64.7293 14.8831 -60.6475 10.777C-56.5659 6.67105 -51.0342 4.36356 -45.2669 4.35712L127.27 4.35712C133.037 4.36356 138.569 6.67105 142.651 10.777C146.733 14.8833 149.031 20.4533 149.037 26.2656V131.735C149.031 137.547 146.733 143.117 142.651 147.223C138.569 151.329 133.037 153.637 127.27 153.643Z" stroke="url(#paint1_linear_12151_4385)" stroke-opacity="0.5" stroke-width="3.92857"/>
<path d="M95.593 117.268L73.494 67.8704C73.0862 66.9582 72.394 66.178 71.5046 65.6295C70.6159 65.0811 69.5709 64.788 68.5016 64.788C67.4314 64.788 66.3864 65.0811 65.4978 65.6295C64.6084 66.178 63.9161 66.9582 63.5083 67.8704L41.4094 117.268C41.1344 117.874 40.9921 118.524 40.9906 119.181C40.9882 119.838 41.1273 120.488 41.3991 121.095C41.6702 121.702 42.0694 122.254 42.5722 122.718C43.0751 123.182 43.673 123.551 44.3306 123.801C44.9883 124.052 45.6938 124.18 46.4049 124.179C47.1168 124.177 47.8208 124.046 48.4776 123.792C49.1337 123.538 49.7301 123.168 50.2306 122.701C50.7311 122.235 51.1271 121.682 51.3958 121.073L55.8964 111.015H81.106L85.6066 121.073C86.0151 121.986 86.7073 122.766 87.5968 123.315C88.4854 123.864 89.5312 124.157 90.6014 124.157C91.4892 124.157 92.3629 123.954 93.1455 123.568C93.9281 123.182 94.5959 122.623 95.0893 121.942C95.582 121.261 95.8861 120.479 95.9741 119.663C96.0613 118.848 95.9316 118.026 95.593 117.268ZM60.3576 101.044L68.5023 82.8375L76.6471 101.044H60.3576ZM43.9087 96.721C44.7479 95.6509 45.0928 94.3175 44.8681 93.0132C44.6426 91.709 43.8663 90.5406 42.7081 89.7643C42.6594 89.7305 39.0247 87.2422 33.7486 81.8946C43.4844 69.731 48.9986 55.893 51.2481 49.3802H59.172C60.6043 49.3802 61.9786 48.8553 62.9914 47.9203C64.0049 46.9853 64.5738 45.7172 64.5738 44.3948C64.5738 43.0732 64.0049 41.8051 62.9914 40.8701C61.9786 39.9351 60.6043 39.4102 59.172 39.4102H30.6891V34.8782C30.6891 33.5559 30.1194 32.2877 29.1066 31.3527C28.0939 30.4177 26.7196 29.8929 25.2865 29.8929C23.8541 29.8929 22.4799 30.4177 21.4671 31.3527C20.4544 32.2877 19.8847 33.5559 19.8847 34.8782V39.4102H-8.59806C-10.0307 39.4102 -11.4047 39.9351 -12.4178 40.8701C-13.4309 41.8051 -14 43.0732 -14 44.3948C-14 45.7172 -13.4309 46.9853 -12.4178 47.9203C-11.4047 48.8553 -10.0307 49.3802 -8.59806 49.3802H39.8356C37.4981 55.4867 33.1931 65.129 26.6277 73.9345C18.9151 64.4895 16.0496 58.3782 16.0276 58.3287C15.4627 57.1242 14.4067 56.1742 13.0875 55.684C11.7691 55.1937 10.2935 55.2031 8.98246 55.7099C7.6711 56.2175 6.62924 57.1807 6.08278 58.3923C5.53631 59.6031 5.52932 60.9647 6.06329 62.1802C6.20574 62.493 9.63586 69.9368 19.0424 81.1992C19.2687 81.4687 19.4918 81.7312 19.7158 81.9944C10.0806 92.0437 0.627012 98.2775 -3.32874 100.29C-4.58652 100.923 -5.52034 101.991 -5.92459 103.26C-6.32892 104.528 -6.17059 105.893 -5.48458 107.053C-4.7985 108.214 -3.64091 109.076 -2.2663 109.449C-0.891776 109.822 0.587017 109.676 1.84487 109.043C2.37522 108.775 13.7781 102.95 26.7998 89.6488C32.3289 95.1048 36.1301 97.6796 36.3588 97.8289C36.9331 98.2139 37.5845 98.4905 38.2751 98.6437C38.965 98.7961 39.6816 98.8212 40.3832 98.7183C41.0841 98.6154 41.7566 98.3852 42.3616 98.0426C42.9666 97.6992 43.4923 97.2514 43.9087 96.721Z" fill="#A0D8EE"/>
</g>
<defs>
<linearGradient id="paint0_linear_12151_4385" x1="-68.999" y1="-25.1073" x2="151.001" y2="175.25" gradientUnits="userSpaceOnUse">
<stop stop-color="#A0D8EE"/>
<stop offset="0.536458" stop-color="#8BD6F3" stop-opacity="0.4"/>
<stop offset="1" stop-color="#74C5E5"/>
</linearGradient>
<linearGradient id="paint1_linear_12151_4385" x1="-45.427" y1="-60.4643" x2="151.002" y2="171.321" gradientUnits="userSpaceOnUse">
<stop stop-color="#A0D8EE"/>
<stop offset="1" stop-color="#7DCDEC"/>
</linearGradient>
<clipPath id="clip0_12151_4385">
<rect width="220" height="157.143" fill="white" transform="translate(-69.001 0.428528)"/>
</clipPath>
</defs>
</svg>
