<svg width="238" height="40" viewBox="0 0 238 40" fill="none" xmlns="http://www.w3.org/2000/svg">
<path d="M1.79332 29.5V11.3182H8.61151C10.0083 11.3182 11.1802 11.5786 12.1271 12.0994C13.08 12.6203 13.7991 13.3364 14.2844 14.2479C14.7757 15.1534 15.0213 16.1832 15.0213 17.3374C15.0213 18.5033 14.7757 19.5391 14.2844 20.4446C13.7932 21.3501 13.0682 22.0633 12.1094 22.5842C11.1506 23.0991 9.96982 23.3565 8.56712 23.3565H4.0483V20.6488H8.12322C8.93999 20.6488 9.60878 20.5067 10.1296 20.2227C10.6505 19.9386 11.0352 19.5479 11.2837 19.0508C11.5382 18.5536 11.6655 17.9825 11.6655 17.3374C11.6655 16.6922 11.5382 16.1241 11.2837 15.6328C11.0352 15.1416 10.6475 14.7598 10.1207 14.4876C9.59991 14.2094 8.92815 14.0703 8.10547 14.0703H5.087V29.5H1.79332ZM23.493 29.7663C22.1613 29.7663 21.0072 29.4734 20.0306 28.8874C19.0541 28.3015 18.2965 27.4818 17.7579 26.4283C17.2252 25.3748 16.9589 24.1437 16.9589 22.7351C16.9589 21.3265 17.2252 20.0924 17.7579 19.033C18.2965 17.9736 19.0541 17.1509 20.0306 16.565C21.0072 15.979 22.1613 15.6861 23.493 15.6861C24.8247 15.6861 25.9788 15.979 26.9553 16.565C27.9319 17.1509 28.6865 17.9736 29.2192 19.033C29.7578 20.0924 30.0271 21.3265 30.0271 22.7351C30.0271 24.1437 29.7578 25.3748 29.2192 26.4283C28.6865 27.4818 27.9319 28.3015 26.9553 28.8874C25.9788 29.4734 24.8247 29.7663 23.493 29.7663ZM23.5107 27.1918C24.2328 27.1918 24.8365 26.9935 25.3218 26.5969C25.8071 26.1945 26.1682 25.6559 26.4049 24.9812C26.6476 24.3065 26.7689 23.5548 26.7689 22.7262C26.7689 21.8917 26.6476 21.1371 26.4049 20.4624C26.1682 19.7817 25.8071 19.2402 25.3218 18.8377C24.8365 18.4353 24.2328 18.234 23.5107 18.234C22.7709 18.234 22.1554 18.4353 21.6642 18.8377C21.1788 19.2402 20.8148 19.7817 20.5722 20.4624C20.3354 21.1371 20.2171 21.8917 20.2171 22.7262C20.2171 23.5548 20.3354 24.3065 20.5722 24.9812C20.8148 25.6559 21.1788 26.1945 21.6642 26.5969C22.1554 26.9935 22.7709 27.1918 23.5107 27.1918ZM35.1784 29.5L31.3255 15.8636H34.6014L36.9984 25.4517H37.1227L39.573 15.8636H42.8134L45.2637 25.3984H45.3968L47.7583 15.8636H51.0431L47.1813 29.5H43.8343L41.2775 20.2848H41.0911L38.5343 29.5H35.1784ZM58.9333 29.7663C57.5661 29.7663 56.3854 29.4822 55.3911 28.9141C54.4027 28.34 53.6421 27.5291 53.1095 26.4815C52.5768 25.428 52.3105 24.1881 52.3105 22.7617C52.3105 21.359 52.5768 20.128 53.1095 19.0685C53.6481 18.0032 54.3997 17.1746 55.3644 16.5827C56.3292 15.985 57.4626 15.6861 58.7646 15.6861C59.6051 15.6861 60.3982 15.8222 61.1439 16.0945C61.8956 16.3608 62.5584 16.7751 63.1325 17.3374C63.7126 17.8996 64.1683 18.6158 64.4997 19.4858C64.8312 20.3499 64.9969 21.3797 64.9969 22.5753V23.5607H53.8197V21.3945H61.9163C61.9104 20.779 61.7772 20.2315 61.5168 19.7521C61.2564 19.2668 60.8924 18.8851 60.4248 18.6069C59.9632 18.3287 59.4246 18.1896 58.809 18.1896C58.1521 18.1896 57.575 18.3494 57.0779 18.669C56.5807 18.9827 56.193 19.397 55.9149 19.9119C55.6426 20.4209 55.5035 20.9802 55.4976 21.5898V23.4808C55.4976 24.2739 55.6426 24.9545 55.9326 25.5227C56.2226 26.085 56.628 26.517 57.1489 26.8189C57.6697 27.1148 58.2793 27.2628 58.9777 27.2628C59.4453 27.2628 59.8685 27.1977 60.2472 27.0675C60.626 26.9313 60.9545 26.7331 61.2327 26.4727C61.5109 26.2122 61.721 25.8897 61.863 25.505L64.8637 25.8423C64.6743 26.6354 64.3133 27.3279 63.7806 27.9197C63.2539 28.5057 62.5792 28.9614 61.7565 29.2869C60.9338 29.6065 59.9927 29.7663 58.9333 29.7663ZM67.7157 29.5V15.8636H70.8319V18.1364H70.9739C71.2225 17.3492 71.6486 16.7425 72.2523 16.3164C72.8619 15.8844 73.5574 15.6683 74.3386 15.6683C74.5162 15.6683 74.7144 15.6772 74.9334 15.695C75.1583 15.7068 75.3448 15.7275 75.4927 15.7571V18.7134C75.3566 18.6661 75.1406 18.6246 74.8446 18.5891C74.5546 18.5477 74.2735 18.527 74.0012 18.527C73.4153 18.527 72.8886 18.6542 72.421 18.9087C71.9593 19.1573 71.5953 19.5036 71.329 19.9474C71.0627 20.3913 70.9295 20.9033 70.9295 21.4833V29.5H67.7157ZM77.7699 29.5V11.3182H84.5881C85.9848 11.3182 87.1567 11.5786 88.1037 12.0994C89.0566 12.6203 89.7757 13.3364 90.261 14.2479C90.7522 15.1534 90.9979 16.1832 90.9979 17.3374C90.9979 18.5033 90.7522 19.5391 90.261 20.4446C89.7698 21.3501 89.0447 22.0633 88.0859 22.5842C87.1271 23.0991 85.9464 23.3565 84.5437 23.3565H80.0249V20.6488H84.0998C84.9165 20.6488 85.5853 20.5067 86.1062 20.2227C86.627 19.9386 87.0117 19.5479 87.2603 19.0508C87.5148 18.5536 87.642 17.9825 87.642 17.3374C87.642 16.6922 87.5148 16.1241 87.2603 15.6328C87.0117 15.1416 86.6241 14.7598 86.0973 14.4876C85.5765 14.2094 84.9047 14.0703 84.082 14.0703H81.0636V29.5H77.7699ZM99.4695 29.7663C98.1379 29.7663 96.9838 29.4734 96.0072 28.8874C95.0306 28.3015 94.2731 27.4818 93.7345 26.4283C93.2018 25.3748 92.9355 24.1437 92.9355 22.7351C92.9355 21.3265 93.2018 20.0924 93.7345 19.033C94.2731 17.9736 95.0306 17.1509 96.0072 16.565C96.9838 15.979 98.1379 15.6861 99.4695 15.6861C100.801 15.6861 101.955 15.979 102.932 16.565C103.908 17.1509 104.663 17.9736 105.196 19.033C105.734 20.0924 106.004 21.3265 106.004 22.7351C106.004 24.1437 105.734 25.3748 105.196 26.4283C104.663 27.4818 103.908 28.3015 102.932 28.8874C101.955 29.4734 100.801 29.7663 99.4695 29.7663ZM99.4873 27.1918C100.209 27.1918 100.813 26.9935 101.298 26.5969C101.784 26.1945 102.145 25.6559 102.381 24.9812C102.624 24.3065 102.745 23.5548 102.745 22.7262C102.745 21.8917 102.624 21.1371 102.381 20.4624C102.145 19.7817 101.784 19.2402 101.298 18.8377C100.813 18.4353 100.209 18.234 99.4873 18.234C98.7475 18.234 98.132 18.4353 97.6407 18.8377C97.1554 19.2402 96.7914 19.7817 96.5487 20.4624C96.312 21.1371 96.1936 21.8917 96.1936 22.7262C96.1936 23.5548 96.312 24.3065 96.5487 24.9812C96.7914 25.6559 97.1554 26.1945 97.6407 26.5969C98.132 26.9935 98.7475 27.1918 99.4873 27.1918ZM108.731 29.5V15.8636H111.945V29.5H108.731ZM110.347 13.9283C109.838 13.9283 109.4 13.7596 109.033 13.4222C108.666 13.079 108.483 12.6676 108.483 12.1882C108.483 11.7029 108.666 11.2915 109.033 10.9542C109.4 10.6109 109.838 10.4393 110.347 10.4393C110.862 10.4393 111.3 10.6109 111.661 10.9542C112.028 11.2915 112.211 11.7029 112.211 12.1882C112.211 12.6676 112.028 13.079 111.661 13.4222C111.3 13.7596 110.862 13.9283 110.347 13.9283ZM118.464 21.5099V29.5H115.25V15.8636H118.322V18.1808H118.481C118.795 17.4173 119.295 16.8106 119.982 16.3608C120.674 15.911 121.53 15.6861 122.547 15.6861C123.489 15.6861 124.308 15.8873 125.007 16.2898C125.711 16.6922 126.255 17.2752 126.64 18.0387C127.031 18.8022 127.223 19.7285 127.217 20.8175V29.5H124.003V21.3146C124.003 20.4032 123.767 19.69 123.293 19.1751C122.826 18.6602 122.178 18.4027 121.349 18.4027C120.787 18.4027 120.287 18.527 119.849 18.7756C119.417 19.0182 119.076 19.3704 118.828 19.832C118.585 20.2937 118.464 20.853 118.464 21.5099ZM137.294 15.8636V18.3494H129.454V15.8636H137.294ZM131.39 12.5966H134.604V25.3984C134.604 25.8305 134.669 26.1619 134.799 26.3928C134.935 26.6177 135.113 26.7715 135.332 26.8544C135.551 26.9373 135.793 26.9787 136.06 26.9787C136.261 26.9787 136.444 26.9639 136.61 26.9343C136.782 26.9047 136.912 26.8781 137.001 26.8544L137.542 29.3668C137.371 29.426 137.125 29.4911 136.805 29.5621C136.492 29.6332 136.107 29.6746 135.651 29.6864C134.846 29.7101 134.121 29.5888 133.476 29.3224C132.831 29.0502 132.319 28.63 131.94 28.0618C131.567 27.4936 131.384 26.7834 131.39 25.9311V12.5966Z" fill="#A1D8EE"/>
<path d="M162.571 20.4091C162.571 22.3681 162.204 24.046 161.47 25.4428C160.742 26.8337 159.748 27.899 158.487 28.6388C157.232 29.3787 155.809 29.7486 154.217 29.7486C152.625 29.7486 151.199 29.3787 149.938 28.6388C148.683 27.8931 147.689 26.8248 146.955 25.4339C146.227 24.0372 145.863 22.3622 145.863 20.4091C145.863 18.45 146.227 16.7751 146.955 15.3842C147.689 13.9875 148.683 12.9192 149.938 12.1793C151.199 11.4395 152.625 11.0696 154.217 11.0696C155.809 11.0696 157.232 11.4395 158.487 12.1793C159.748 12.9192 160.742 13.9875 161.47 15.3842C162.204 16.7751 162.571 18.45 162.571 20.4091ZM159.26 20.4091C159.26 19.0301 159.044 17.8671 158.612 16.9201C158.185 15.9672 157.594 15.2481 156.836 14.7628C156.078 14.2715 155.205 14.0259 154.217 14.0259C153.229 14.0259 152.356 14.2715 151.598 14.7628C150.84 15.2481 150.246 15.9672 149.814 16.9201C149.387 17.8671 149.174 19.0301 149.174 20.4091C149.174 21.7881 149.387 22.9541 149.814 23.907C150.246 24.8539 150.84 25.573 151.598 26.0643C152.356 26.5496 153.229 26.7923 154.217 26.7923C155.205 26.7923 156.078 26.5496 156.836 26.0643C157.594 25.573 158.185 24.8539 158.612 23.907C159.044 22.9541 159.26 21.7881 159.26 20.4091ZM174.909 21.3501V23.9869H167.647V21.3501H174.909ZM168.641 15.8636V29.5H165.543V15.8636H168.641ZM177.013 15.8636V29.5H173.924V15.8636H177.013ZM179.324 29.5L179.306 26.8544H179.776C180.131 26.8544 180.43 26.7745 180.673 26.6147C180.916 26.4549 181.117 26.1886 181.277 25.8157C181.436 25.4369 181.561 24.9279 181.65 24.2887C181.738 23.6495 181.8 22.8535 181.836 21.9006L182.076 15.8636H192.019V29.5H188.912V18.5004H184.996L184.783 22.8949C184.73 24.0312 184.603 25.0167 184.402 25.8512C184.206 26.6798 183.928 27.3634 183.567 27.902C183.212 28.4406 182.765 28.843 182.227 29.1094C181.688 29.3698 181.052 29.5 180.318 29.5H179.324ZM199.179 29.7752C198.315 29.7752 197.536 29.6213 196.844 29.3136C196.157 28.9999 195.613 28.5382 195.21 27.9286C194.814 27.319 194.616 26.5674 194.616 25.6737C194.616 24.9042 194.758 24.268 195.042 23.7649C195.326 23.2618 195.713 22.8594 196.205 22.5575C196.696 22.2557 197.249 22.0278 197.865 21.8739C198.486 21.7141 199.128 21.5987 199.791 21.5277C200.59 21.4448 201.238 21.3709 201.736 21.3058C202.233 21.2347 202.594 21.1282 202.819 20.9862C203.05 20.8382 203.165 20.6103 203.165 20.3026V20.2493C203.165 19.5805 202.967 19.0626 202.57 18.6957C202.174 18.3287 201.602 18.1452 200.857 18.1452C200.07 18.1452 199.445 18.3169 198.983 18.6602C198.528 19.0034 198.22 19.4089 198.06 19.8764L195.059 19.4503C195.296 18.6217 195.687 17.9292 196.231 17.3729C196.776 16.8106 197.442 16.3904 198.229 16.1122C199.016 15.8281 199.886 15.6861 200.839 15.6861C201.496 15.6861 202.15 15.763 202.801 15.9169C203.452 16.0708 204.047 16.3253 204.585 16.6804C205.124 17.0296 205.556 17.506 205.882 18.1097C206.213 18.7134 206.379 19.468 206.379 20.3736V29.5H203.289V27.6268H203.183C202.987 28.0056 202.712 28.3607 202.357 28.6921C202.008 29.0176 201.567 29.281 201.034 29.4822C200.508 29.6776 199.889 29.7752 199.179 29.7752ZM200.013 27.4137C200.658 27.4137 201.218 27.2865 201.691 27.032C202.165 26.7715 202.529 26.4283 202.783 26.0021C203.044 25.576 203.174 25.1114 203.174 24.6083V23.0014C203.073 23.0843 202.902 23.1612 202.659 23.2322C202.422 23.3033 202.156 23.3654 201.86 23.4187C201.564 23.4719 201.271 23.5193 200.981 23.5607C200.691 23.6022 200.439 23.6377 200.226 23.6673C199.747 23.7324 199.318 23.8389 198.939 23.9869C198.56 24.1348 198.261 24.342 198.042 24.6083C197.823 24.8687 197.714 25.2061 197.714 25.6204C197.714 26.2122 197.93 26.6591 198.362 26.9609C198.794 27.2628 199.345 27.4137 200.013 27.4137ZM212.709 25.1499L218.169 15.8636H221.471V29.5H218.364V20.2049L212.922 29.5H209.61V15.8636H212.709V25.1499ZM217.29 11.1761H219.695C219.695 12.2119 219.32 13.0523 218.568 13.6974C217.822 14.3366 216.81 14.6562 215.532 14.6562C214.265 14.6562 213.256 14.3366 212.504 13.6974C211.759 13.0523 211.389 12.2119 211.395 11.1761H213.783C213.783 11.6023 213.913 11.984 214.173 12.3214C214.44 12.6528 214.893 12.8185 215.532 12.8185C216.159 12.8185 216.606 12.6528 216.872 12.3214C217.145 11.9899 217.284 11.6082 217.29 11.1761ZM234.138 21.3501V23.9869H226.875V21.3501H234.138ZM227.87 15.8636V29.5H224.771V15.8636H227.87ZM236.242 15.8636V29.5H233.152V15.8636H236.242Z" fill="white"/>
</svg>
