<svg width="191" height="40" viewBox="0 0 191 40" fill="none" xmlns="http://www.w3.org/2000/svg">
<path d="M1.43466 27V12.4545H6.8892C8.00663 12.4545 8.94413 12.6629 9.7017 13.0795C10.464 13.4962 11.0393 14.0691 11.4276 14.7983C11.8205 15.5227 12.017 16.3466 12.017 17.2699C12.017 18.2027 11.8205 19.0312 11.4276 19.7557C11.0346 20.4801 10.4545 21.0507 9.6875 21.4673C8.92045 21.8793 7.97585 22.0852 6.85369 22.0852H3.23864V19.919H6.49858C7.15199 19.919 7.68703 19.8054 8.10369 19.5781C8.52036 19.3509 8.82813 19.0384 9.02699 18.6406C9.23059 18.2429 9.33239 17.786 9.33239 17.2699C9.33239 16.7538 9.23059 16.2992 9.02699 15.9062C8.82813 15.5133 8.51799 15.2079 8.09659 14.9901C7.67992 14.7675 7.14252 14.6562 6.48438 14.6562H4.0696V27H1.43466ZM18.7944 27.2131C17.729 27.2131 16.8058 26.9787 16.0245 26.5099C15.2433 26.0412 14.6372 25.3854 14.2063 24.5426C13.7802 23.6998 13.5671 22.715 13.5671 21.5881C13.5671 20.4612 13.7802 19.474 14.2063 18.6264C14.6372 17.7789 15.2433 17.1207 16.0245 16.652C16.8058 16.1832 17.729 15.9489 18.7944 15.9489C19.8597 15.9489 20.783 16.1832 21.5643 16.652C22.3455 17.1207 22.9492 17.7789 23.3754 18.6264C23.8062 19.474 24.0217 20.4612 24.0217 21.5881C24.0217 22.715 23.8062 23.6998 23.3754 24.5426C22.9492 25.3854 22.3455 26.0412 21.5643 26.5099C20.783 26.9787 19.8597 27.2131 18.7944 27.2131ZM18.8086 25.1534C19.3862 25.1534 19.8692 24.9948 20.2575 24.6776C20.6457 24.3556 20.9345 23.9247 21.1239 23.3849C21.3181 22.8452 21.4151 22.2438 21.4151 21.581C21.4151 20.9134 21.3181 20.3097 21.1239 19.7699C20.9345 19.2254 20.6457 18.7921 20.2575 18.4702C19.8692 18.1482 19.3862 17.9872 18.8086 17.9872C18.2167 17.9872 17.7243 18.1482 17.3313 18.4702C16.9431 18.7921 16.6519 19.2254 16.4577 19.7699C16.2683 20.3097 16.1737 20.9134 16.1737 21.581C16.1737 22.2438 16.2683 22.8452 16.4577 23.3849C16.6519 23.9247 16.9431 24.3556 17.3313 24.6776C17.7243 24.9948 18.2167 25.1534 18.8086 25.1534ZM28.1428 27L25.0604 16.0909H27.6811L29.5987 23.7614H29.6982L31.6584 16.0909H34.2507L36.2109 23.7188H36.3175L38.2067 16.0909H40.8345L37.745 27H35.0675L33.022 19.6278H32.8729L30.8274 27H28.1428ZM47.1467 27.2131C46.0529 27.2131 45.1083 26.9858 44.3129 26.5312C43.5221 26.072 42.9137 25.4233 42.4876 24.5852C42.0614 23.7424 41.8484 22.7505 41.8484 21.6094C41.8484 20.4872 42.0614 19.5024 42.4876 18.6548C42.9184 17.8026 43.5198 17.1397 44.2915 16.6662C45.0633 16.188 45.9701 15.9489 47.0117 15.9489C47.6841 15.9489 48.3185 16.0578 48.9151 16.2756C49.5165 16.4886 50.0468 16.8201 50.506 17.2699C50.9701 17.7197 51.3346 18.2926 51.5998 18.9886C51.8649 19.6799 51.9975 20.5038 51.9975 21.4602V22.2486H43.0558V20.5156H49.533C49.5283 20.0232 49.4218 19.5852 49.2134 19.2017C49.0051 18.8134 48.7139 18.508 48.3398 18.2855C47.9705 18.063 47.5397 17.9517 47.0472 17.9517C46.5217 17.9517 46.06 18.0795 45.6623 18.3352C45.2646 18.5862 44.9544 18.9176 44.7319 19.3295C44.5141 19.7367 44.4028 20.1842 44.3981 20.6719V22.1847C44.3981 22.8191 44.5141 23.3636 44.7461 23.8182C44.9781 24.268 45.3024 24.6136 45.7191 24.8551C46.1358 25.0919 46.6235 25.2102 47.1822 25.2102C47.5562 25.2102 47.8948 25.1581 48.1978 25.054C48.5008 24.9451 48.7636 24.7865 48.9862 24.5781C49.2087 24.3698 49.3768 24.1117 49.4904 23.804L51.891 24.0739C51.7395 24.7083 51.4506 25.2623 51.0245 25.7358C50.6031 26.2045 50.0633 26.5691 49.4052 26.8295C48.747 27.0852 47.9942 27.2131 47.1467 27.2131ZM54.1726 27V16.0909H56.6655V17.9091H56.7791C56.978 17.2794 57.3189 16.794 57.8018 16.4531C58.2895 16.1075 58.8459 15.9347 59.4709 15.9347C59.6129 15.9347 59.7715 15.9418 59.9467 15.956C60.1267 15.9654 60.2758 15.982 60.3942 16.0057V18.3707C60.2853 18.3329 60.1125 18.2997 59.8757 18.2713C59.6437 18.2382 59.4188 18.2216 59.201 18.2216C58.7322 18.2216 58.3108 18.3234 57.9368 18.527C57.5675 18.7259 57.2763 19.0028 57.0632 19.358C56.8501 19.7131 56.7436 20.1226 56.7436 20.5866V27H54.1726ZM62.2159 27V12.4545H67.6705C68.7879 12.4545 69.7254 12.6629 70.483 13.0795C71.2453 13.4962 71.8205 14.0691 72.2088 14.7983C72.6018 15.5227 72.7983 16.3466 72.7983 17.2699C72.7983 18.2027 72.6018 19.0312 72.2088 19.7557C71.8158 20.4801 71.2358 21.0507 70.4688 21.4673C69.7017 21.8793 68.7571 22.0852 67.6349 22.0852H64.0199V19.919H67.2798C67.9332 19.919 68.4683 19.8054 68.8849 19.5781C69.3016 19.3509 69.6094 19.0384 69.8082 18.6406C70.0118 18.2429 70.1136 17.786 70.1136 17.2699C70.1136 16.7538 70.0118 16.2992 69.8082 15.9062C69.6094 15.5133 69.2992 15.2079 68.8778 14.9901C68.4612 14.7675 67.9238 14.6562 67.2656 14.6562H64.8509V27H62.2159ZM79.5756 27.2131C78.5103 27.2131 77.587 26.9787 76.8058 26.5099C76.0245 26.0412 75.4184 25.3854 74.9876 24.5426C74.5614 23.6998 74.3484 22.715 74.3484 21.5881C74.3484 20.4612 74.5614 19.474 74.9876 18.6264C75.4184 17.7789 76.0245 17.1207 76.8058 16.652C77.587 16.1832 78.5103 15.9489 79.5756 15.9489C80.641 15.9489 81.5643 16.1832 82.3455 16.652C83.1268 17.1207 83.7305 17.7789 84.1566 18.6264C84.5875 19.474 84.8029 20.4612 84.8029 21.5881C84.8029 22.715 84.5875 23.6998 84.1566 24.5426C83.7305 25.3854 83.1268 26.0412 82.3455 26.5099C81.5643 26.9787 80.641 27.2131 79.5756 27.2131ZM79.5898 25.1534C80.1675 25.1534 80.6504 24.9948 81.0387 24.6776C81.427 24.3556 81.7158 23.9247 81.9052 23.3849C82.0993 22.8452 82.1964 22.2438 82.1964 21.581C82.1964 20.9134 82.0993 20.3097 81.9052 19.7699C81.7158 19.2254 81.427 18.7921 81.0387 18.4702C80.6504 18.1482 80.1675 17.9872 79.5898 17.9872C78.998 17.9872 78.5056 18.1482 78.1126 18.4702C77.7243 18.7921 77.4331 19.2254 77.239 19.7699C77.0496 20.3097 76.9549 20.9134 76.9549 21.581C76.9549 22.2438 77.0496 22.8452 77.239 23.3849C77.4331 23.9247 77.7243 24.3556 78.1126 24.6776C78.5056 24.9948 78.998 25.1534 79.5898 25.1534ZM86.9851 27V16.0909H89.5561V27H86.9851ZM88.2777 14.5426C87.8705 14.5426 87.5201 14.4077 87.2266 14.1378C86.933 13.8632 86.7862 13.5341 86.7862 13.1506C86.7862 12.7623 86.933 12.4332 87.2266 12.1634C87.5201 11.8887 87.8705 11.7514 88.2777 11.7514C88.6896 11.7514 89.04 11.8887 89.3288 12.1634C89.6224 12.4332 89.7692 12.7623 89.7692 13.1506C89.7692 13.5341 89.6224 13.8632 89.3288 14.1378C89.04 14.4077 88.6896 14.5426 88.2777 14.5426ZM94.771 20.608V27H92.1999V16.0909H94.6573V17.9446H94.7852C95.0361 17.3338 95.4362 16.8485 95.9854 16.4886C96.5394 16.1288 97.2236 15.9489 98.038 15.9489C98.7908 15.9489 99.4466 16.1098 100.005 16.4318C100.569 16.7538 101.004 17.2202 101.312 17.831C101.625 18.4418 101.779 19.1828 101.774 20.054V27H99.2028V20.4517C99.2028 19.7225 99.0134 19.152 98.6346 18.7401C98.2605 18.3281 97.7421 18.1222 97.0792 18.1222C96.6294 18.1222 96.2293 18.2216 95.8789 18.4205C95.5333 18.6146 95.261 18.8963 95.0621 19.2656C94.868 19.6349 94.771 20.0824 94.771 20.608ZM109.835 16.0909V18.0795H103.564V16.0909H109.835ZM105.112 13.4773H107.683V23.7188C107.683 24.0644 107.735 24.3295 107.839 24.5142C107.948 24.6941 108.09 24.8172 108.265 24.8835C108.44 24.9498 108.635 24.983 108.848 24.983C109.009 24.983 109.155 24.9711 109.288 24.9474C109.425 24.9238 109.529 24.9025 109.6 24.8835L110.034 26.8935C109.896 26.9408 109.7 26.9929 109.444 27.0497C109.193 27.1065 108.886 27.1397 108.521 27.1491C107.877 27.1681 107.297 27.071 106.781 26.858C106.265 26.6402 105.855 26.304 105.552 25.8494C105.254 25.3949 105.107 24.8267 105.112 24.1449V13.4773Z" fill="#6CC3E5"/>
<path d="M130.057 19.7273C130.057 21.2945 129.763 22.6368 129.176 23.7543C128.594 24.867 127.798 25.7192 126.79 26.3111C125.786 26.9029 124.647 27.1989 123.374 27.1989C122.1 27.1989 120.959 26.9029 119.95 26.3111C118.946 25.7145 118.151 24.8598 117.564 23.7472C116.982 22.6297 116.69 21.2898 116.69 19.7273C116.69 18.16 116.982 16.8201 117.564 15.7074C118.151 14.59 118.946 13.7353 119.95 13.1435C120.959 12.5516 122.1 12.2557 123.374 12.2557C124.647 12.2557 125.786 12.5516 126.79 13.1435C127.798 13.7353 128.594 14.59 129.176 15.7074C129.763 16.8201 130.057 18.16 130.057 19.7273ZM127.408 19.7273C127.408 18.6241 127.235 17.6937 126.889 16.9361C126.548 16.1738 126.075 15.5985 125.469 15.2102C124.863 14.8172 124.164 14.6207 123.374 14.6207C122.583 14.6207 121.884 14.8172 121.278 15.2102C120.672 15.5985 120.196 16.1738 119.851 16.9361C119.51 17.6937 119.339 18.6241 119.339 19.7273C119.339 20.8305 119.51 21.7633 119.851 22.5256C120.196 23.2831 120.672 23.8584 121.278 24.2514C121.884 24.6397 122.583 24.8338 123.374 24.8338C124.164 24.8338 124.863 24.6397 125.469 24.2514C126.075 23.8584 126.548 23.2831 126.889 22.5256C127.235 21.7633 127.408 20.8305 127.408 19.7273ZM139.927 20.4801V22.5895H134.118V20.4801H139.927ZM134.913 16.0909V27H132.434V16.0909H134.913ZM141.61 16.0909V27H139.139V16.0909H141.61ZM143.459 27L143.445 24.8835H143.821C144.105 24.8835 144.344 24.8196 144.538 24.6918C144.732 24.5639 144.893 24.3509 145.021 24.0526C145.149 23.7495 145.249 23.3423 145.32 22.831C145.391 22.3196 145.44 21.6828 145.469 20.9205L145.661 16.0909H153.615V27H151.129V18.2003H147.997L147.827 21.7159C147.784 22.625 147.682 23.4134 147.521 24.081C147.365 24.7438 147.143 25.2907 146.854 25.7216C146.57 26.1525 146.212 26.4744 145.781 26.6875C145.35 26.8958 144.841 27 144.254 27H143.459ZM159.343 27.2202C158.652 27.2202 158.029 27.0971 157.475 26.8509C156.926 26.5999 156.49 26.2306 156.168 25.7429C155.851 25.2552 155.692 24.6539 155.692 23.9389C155.692 23.3234 155.806 22.8144 156.033 22.4119C156.261 22.0095 156.571 21.6875 156.964 21.446C157.357 21.2045 157.799 21.0223 158.292 20.8991C158.789 20.7713 159.303 20.679 159.833 20.6222C160.472 20.5559 160.991 20.4967 161.388 20.4446C161.786 20.3878 162.075 20.3026 162.255 20.1889C162.44 20.0705 162.532 19.8883 162.532 19.642V19.5994C162.532 19.0644 162.373 18.6501 162.056 18.3565C161.739 18.063 161.282 17.9162 160.685 17.9162C160.056 17.9162 159.556 18.0535 159.187 18.3281C158.822 18.6027 158.576 18.9271 158.448 19.3011L156.048 18.9602C156.237 18.2973 156.549 17.7434 156.985 17.2983C157.421 16.8485 157.953 16.5123 158.583 16.2898C159.213 16.0625 159.909 15.9489 160.671 15.9489C161.197 15.9489 161.72 16.0104 162.241 16.1335C162.762 16.2566 163.237 16.4602 163.668 16.7443C164.099 17.0237 164.445 17.4048 164.705 17.8878C164.97 18.3707 165.103 18.9744 165.103 19.6989V27H162.631V25.5014H162.546C162.39 25.8045 162.17 26.0885 161.886 26.3537C161.606 26.6141 161.254 26.8248 160.827 26.9858C160.406 27.142 159.911 27.2202 159.343 27.2202ZM160.011 25.331C160.527 25.331 160.974 25.2292 161.353 25.0256C161.732 24.8172 162.023 24.5426 162.227 24.2017C162.435 23.8608 162.539 23.4891 162.539 23.0866V21.8011C162.459 21.8674 162.321 21.929 162.127 21.9858C161.938 22.0426 161.725 22.0923 161.488 22.1349C161.251 22.1776 161.017 22.2154 160.785 22.2486C160.553 22.2817 160.352 22.3101 160.181 22.3338C159.798 22.3859 159.454 22.4711 159.151 22.5895C158.848 22.7079 158.609 22.8736 158.434 23.0866C158.259 23.295 158.171 23.5649 158.171 23.8963C158.171 24.3698 158.344 24.7273 158.69 24.9688C159.035 25.2102 159.476 25.331 160.011 25.331ZM170.167 23.5199L174.535 16.0909H177.177V27H174.691V19.5639L170.337 27H167.688V16.0909H170.167V23.5199ZM173.832 12.3409H175.756C175.756 13.1695 175.456 13.8419 174.854 14.358C174.258 14.8693 173.448 15.125 172.425 15.125C171.412 15.125 170.605 14.8693 170.004 14.358C169.407 13.8419 169.111 13.1695 169.116 12.3409H171.026C171.026 12.6818 171.13 12.9872 171.339 13.2571C171.552 13.5223 171.914 13.6548 172.425 13.6548C172.927 13.6548 173.285 13.5223 173.498 13.2571C173.716 12.992 173.827 12.6866 173.832 12.3409ZM187.31 20.4801V22.5895H181.5V20.4801H187.31ZM182.296 16.0909V27H179.817V16.0909H182.296ZM188.993 16.0909V27H186.522V16.0909H188.993Z" fill="black"/>
</svg>
