<svg width="47" height="22" viewBox="0 0 47 22" fill="none" xmlns="http://www.w3.org/2000/svg">
<path d="M6.00396 8.71987C5.96134 8.32112 5.78176 8.01065 5.4652 7.78845C5.15168 7.56625 4.74381 7.45515 4.24158 7.45515C3.88849 7.45515 3.58563 7.50842 3.333 7.61496C3.08036 7.72149 2.88707 7.86607 2.75315 8.0487C2.61922 8.23133 2.55073 8.43983 2.54769 8.67421C2.54769 8.86901 2.59182 9.03795 2.68009 9.18101C2.77141 9.32407 2.89468 9.44582 3.04992 9.54627C3.20515 9.64367 3.37713 9.72585 3.56585 9.79282C3.75457 9.85978 3.94481 9.91609 4.13657 9.96175L5.01319 10.1809C5.36627 10.2631 5.70566 10.3742 6.03135 10.5142C6.36009 10.6542 6.65382 10.8308 6.91254 11.0438C7.17431 11.2569 7.38129 11.5141 7.53348 11.8154C7.68567 12.1168 7.76177 12.4699 7.76177 12.8747C7.76177 13.4226 7.62175 13.905 7.34172 14.322C7.06169 14.736 6.65686 15.0602 6.12723 15.2945C5.60065 15.5259 4.96297 15.6415 4.21418 15.6415C3.48671 15.6415 2.85511 15.5289 2.3194 15.3037C1.78673 15.0784 1.36972 14.7497 1.06838 14.3175C0.770089 13.8852 0.608766 13.3587 0.584416 12.7377H2.25091C2.27526 13.0634 2.37571 13.3343 2.55225 13.5504C2.72879 13.7665 2.9586 13.9279 3.24168 14.0344C3.5278 14.1409 3.8474 14.1942 4.20049 14.1942C4.56879 14.1942 4.89144 14.1394 5.16843 14.0298C5.44846 13.9172 5.66761 13.762 5.82589 13.5641C5.98417 13.3632 6.06483 13.1289 6.06788 12.861C6.06483 12.6175 5.9933 12.4166 5.85329 12.2583C5.71327 12.097 5.51694 11.9631 5.26431 11.8565C5.01471 11.747 4.7225 11.6496 4.38768 11.5643L3.32386 11.2904C2.55377 11.0925 1.94501 10.7927 1.49757 10.3909C1.05317 9.9861 0.830966 9.44886 0.830966 8.77922C0.830966 8.22829 0.980114 7.74584 1.27841 7.33188C1.57975 6.91792 1.98914 6.59679 2.5066 6.36851C3.02405 6.13717 3.60998 6.02151 4.26441 6.02151C4.92796 6.02151 5.50933 6.13717 6.00852 6.36851C6.51076 6.59679 6.90493 6.91487 7.19105 7.32275C7.47717 7.72758 7.6248 8.19328 7.63393 8.71987H6.00396ZM10.8516 6.14935V15.5H9.19884V6.14935H10.8516ZM12.5512 15.5V8.48701H14.204V15.5H12.5512ZM13.3822 7.49168C13.1204 7.49168 12.8952 7.40493 12.7065 7.23143C12.5178 7.05489 12.4234 6.84334 12.4234 6.59679C12.4234 6.3472 12.5178 6.13565 12.7065 5.96215C12.8952 5.78561 13.1204 5.69734 13.3822 5.69734C13.647 5.69734 13.8723 5.78561 14.0579 5.96215C14.2467 6.13565 14.341 6.3472 14.341 6.59679C14.341 6.84334 14.2467 7.05489 14.0579 7.23143C13.8723 7.40493 13.647 7.49168 13.3822 7.49168ZM18.5061 15.6233C17.9552 15.6233 17.4621 15.4817 17.0268 15.1987C16.5915 14.9156 16.2476 14.5047 15.995 13.9659C15.7423 13.4272 15.616 12.7727 15.616 12.0026C15.616 11.2234 15.7438 10.5659 15.9995 10.0302C16.2582 9.49148 16.6068 9.08513 17.0451 8.81118C17.4834 8.53419 17.9719 8.3957 18.5107 8.3957C18.9216 8.3957 19.2595 8.46571 19.5243 8.60572C19.7891 8.74269 19.9991 8.90858 20.1543 9.10339C20.3096 9.29515 20.4298 9.47626 20.515 9.64671H20.5835V6.14935H22.2409V15.5H20.6155V14.3951H20.515C20.4298 14.5655 20.3065 14.7467 20.1452 14.9384C19.9839 15.1271 19.7708 15.2885 19.506 15.4224C19.2412 15.5563 18.9079 15.6233 18.5061 15.6233ZM18.9673 14.2672C19.3173 14.2672 19.6156 14.1729 19.8621 13.9842C20.1087 13.7924 20.2959 13.5261 20.4237 13.1852C20.5516 12.8443 20.6155 12.447 20.6155 11.9935C20.6155 11.54 20.5516 11.1458 20.4237 10.811C20.2989 10.4762 20.1133 10.2159 19.8667 10.0302C19.6232 9.84456 19.3234 9.75172 18.9673 9.75172C18.599 9.75172 18.2915 9.8476 18.045 10.0394C17.7984 10.2311 17.6127 10.4959 17.488 10.8338C17.3632 11.1717 17.3008 11.5582 17.3008 11.9935C17.3008 12.4318 17.3632 12.823 17.488 13.1669C17.6158 13.5078 17.803 13.7772 18.0495 13.975C18.2991 14.1698 18.605 14.2672 18.9673 14.2672ZM25.0294 18.1299C24.8042 18.1299 24.5957 18.1116 24.4039 18.0751C24.2152 18.0416 24.0645 18.002 23.9519 17.9564L24.3354 16.6688C24.5759 16.7388 24.7905 16.7723 24.9792 16.7693C25.1679 16.7662 25.3338 16.7069 25.4769 16.5912C25.623 16.4786 25.7462 16.2899 25.8467 16.0251L25.9882 15.6461L23.4451 8.48701H25.1984L26.8146 13.7833H26.8877L28.5085 8.48701H30.2663L27.4584 16.3492C27.3275 16.7206 27.154 17.0387 26.9379 17.3035C26.7218 17.5713 26.457 17.7753 26.1435 17.9153C25.833 18.0583 25.4616 18.1299 25.0294 18.1299Z" fill="#259DCD"/>
<path d="M35.8731 15.5H34.065L37.3569 6.14935H39.4481L42.7445 15.5H40.9365L38.439 8.06696H38.366L35.8731 15.5ZM35.9324 11.8337H40.8634V13.1943H35.9324V11.8337ZM45.67 6.14935V15.5H43.9761V6.14935H45.67Z" fill="#1C1C1C"/>
</svg>
