<svg width="24" height="24" viewBox="0 0 24 24" fill="none" xmlns="http://www.w3.org/2000/svg">
<g clip-path="url(#clip0_12060_3831)">
<path d="M14.513 13.1162L12.8386 0.837158H12.7135C6.62494 0.854934 1.69356 5.78631 1.67578 11.8749V11.9999L14.513 13.1162Z" fill="#ED6C47"/>
<path d="M12.9639 0.837036H12.8389V11.9998L18.4203 14.2324L24.0017 11.9998V11.8748C23.9839 5.78619 19.0525 0.854812 12.9639 0.837036Z" fill="#FF8F6B"/>
<path d="M24.0014 11.9999V12.1227C23.9839 18.2126 19.0513 23.1452 12.9614 23.1627H12.7158C6.62581 23.1452 1.69326 18.2126 1.67578 12.1227V11.9999H24.0014Z" fill="#D35230"/>
<path opacity="0.1" d="M13.3967 6.32365V18.2343C13.3939 18.6482 13.1431 19.02 12.7604 19.1776C12.6386 19.2291 12.5076 19.2557 12.3753 19.2557H4.31021C4.15393 19.0771 4.00324 18.8874 3.8637 18.6976C2.44173 16.8007 1.67394 14.4934 1.67579 12.1227V11.8771C1.67253 9.7388 2.29747 7.64661 3.473 5.86039C3.59579 5.67062 3.72416 5.48085 3.8637 5.30225H12.3753C12.9377 5.30651 13.3925 5.76132 13.3967 6.32365Z" fill="black"/>
<path opacity="0.2" d="M12.8386 6.88175V18.7924C12.8386 18.9248 12.812 19.0557 12.7605 19.1776C12.6029 19.5603 12.2311 19.8111 11.8172 19.8138H4.81813C4.64153 19.6346 4.47209 19.4484 4.31021 19.2557C4.15393 19.0771 4.00324 18.8873 3.8637 18.6976C2.44173 16.8006 1.67394 14.4934 1.67579 12.1227V11.8771C1.67253 9.73876 2.29747 7.64657 3.473 5.86035H11.8172C12.3795 5.8646 12.8343 6.31941 12.8386 6.88175Z" fill="black"/>
<path opacity="0.2" d="M12.8386 6.88174V17.6762C12.8343 18.2385 12.3795 18.6933 11.8172 18.6976H3.8637C2.44173 16.8006 1.67394 14.4934 1.67579 12.1227V11.8771C1.67253 9.73876 2.29747 7.64657 3.473 5.86035H11.8172C12.3795 5.86459 12.8343 6.3194 12.8386 6.88174Z" fill="black"/>
<path opacity="0.2" d="M12.2804 6.88174V17.6762C12.2762 18.2385 11.8214 18.6933 11.2591 18.6976H3.8637C2.44173 16.8006 1.67394 14.4934 1.67579 12.1227V11.8771C1.67253 9.73876 2.29747 7.64657 3.473 5.86035H11.259C11.8214 5.86459 12.2762 6.3194 12.2804 6.88174Z" fill="black"/>
<path d="M1.02404 5.86047H11.257C11.822 5.86047 12.28 6.31852 12.28 6.88354V17.1165C12.28 17.6815 11.822 18.1395 11.257 18.1395H1.02404C0.459026 18.1395 0.000976562 17.6815 0.000976562 17.1165L0.000976562 6.88354C0.000976562 6.31852 0.459026 5.86047 1.02404 5.86047Z" fill="url(#paint0_linear_12060_3831)"/>
<path d="M6.25274 8.58915C6.91887 8.5442 7.57926 8.73769 8.11581 9.13501C8.56332 9.53454 8.80244 10.1175 8.76437 10.7162C8.77168 11.1324 8.66078 11.5421 8.44456 11.8978C8.22565 12.2474 7.91027 12.5261 7.53646 12.7004C7.10911 12.8992 6.64189 12.9973 6.17069 12.9873H4.87637V15.3929H3.55078V8.58915H6.25274ZM4.87525 11.948H6.0161C6.37777 11.9746 6.73663 11.8676 7.02466 11.6472C7.26289 11.4187 7.38776 11.0964 7.36568 10.767C7.36568 10.0172 6.92996 9.64236 6.05852 9.64236H4.87527V11.948H4.87525Z" fill="white"/>
</g>
<defs>
<linearGradient id="paint0_linear_12060_3831" x1="2.1341" y1="5.06107" x2="10.1469" y2="18.9389" gradientUnits="userSpaceOnUse">
<stop stop-color="#CA4C28"/>
<stop offset="0.5" stop-color="#C5401E"/>
<stop offset="1" stop-color="#B62F14"/>
</linearGradient>
<clipPath id="clip0_12060_3831">
<rect width="24" height="22.3256" fill="white" transform="translate(0 0.837158)"/>
</clipPath>
</defs>
</svg>
