<svg width="143" height="158" viewBox="0 0 143 158" fill="none" xmlns="http://www.w3.org/2000/svg">
<g clip-path="url(#clip0_12151_4791)">
<path d="M196.702 155.467H24.161C17.8697 155.46 11.8381 152.942 7.38953 148.468C2.94094 143.992 0.438639 137.925 0.431641 131.596L0.431641 26.123C0.438639 19.7943 2.94094 13.7269 7.38953 9.25174C11.8381 4.77671 17.8697 2.25951 24.161 2.25244L196.702 2.25244C202.993 2.25951 209.025 4.77671 213.474 9.25174C217.922 13.7269 220.425 19.7943 220.432 26.123V131.596C220.425 137.925 217.922 143.992 213.474 148.468C209.025 152.942 202.993 155.46 196.702 155.467Z" fill="url(#paint0_linear_12151_4791)" fill-opacity="0.5"/>
<path d="M196.7 153.503H24.1638C18.3965 153.496 12.8648 151.189 8.78316 147.082C4.70135 142.976 2.40319 137.407 2.39648 131.595L2.39648 26.1242C2.40319 20.3123 4.70135 14.7428 8.78316 10.6366C12.8648 6.53073 18.3965 4.22324 24.1638 4.2168L196.7 4.2168C202.468 4.22324 208 6.53073 212.082 10.6366C216.163 14.743 218.462 20.313 218.468 26.1253V131.594C218.462 137.406 216.163 142.976 212.082 147.082C208 151.189 202.468 153.496 196.7 153.503Z" stroke="url(#paint1_linear_12151_4791)" stroke-opacity="0.5" stroke-width="3.92857"/>
<path d="M68.9711 87.8841C67.9668 87.8743 67.1081 87.5109 66.3948 86.7932C65.6919 86.0655 65.3453 85.1994 65.3551 84.1946C65.3649 83.1999 65.7283 82.3505 66.4453 81.6472C67.1725 80.9436 68.0382 80.5971 69.0424 80.607C70.0161 80.6165 70.8648 80.9798 71.5881 81.6976C72.3115 82.415 72.6683 83.2715 72.6586 84.2662C72.652 84.9358 72.4736 85.5483 72.1232 86.1033C71.7831 86.6479 71.3375 87.0854 70.7865 87.4148C70.2355 87.7341 69.6304 87.8906 68.9711 87.8841Z" fill="#A0D8EE"/>
<path d="M77.8645 96.3458L78.1796 64.1908L84.5702 64.2535L84.5317 68.1816L84.8208 68.1845C85.111 67.5579 85.5281 66.9224 86.0721 66.2781C86.6263 65.6237 87.3417 65.0826 88.2183 64.6547C89.1052 64.2167 90.2029 64.0042 91.5115 64.017C93.2156 64.0337 94.7835 64.4957 96.2153 65.403C97.6469 66.3002 98.785 67.6462 99.6297 69.4411C100.475 71.2258 100.884 73.4577 100.858 76.1373C100.832 78.7459 100.39 80.9443 99.53 82.7325C98.6806 84.5107 97.5312 85.8546 96.0819 86.7643C94.6427 87.6636 93.0355 88.1048 91.2603 88.0874C90.0025 88.075 88.9344 87.8565 88.056 87.4316C87.1877 87.0069 86.4777 86.4772 85.9259 85.8424C85.3743 85.1976 84.9546 84.549 84.6668 83.8963L84.469 83.8943L84.3463 96.4093L77.8645 96.3458ZM84.4099 75.9458C84.3963 77.3362 84.5772 78.5509 84.9525 79.5901C85.3278 80.6293 85.8778 81.4415 86.6025 82.0272C87.3272 82.6028 88.212 82.8959 89.2568 82.9062C90.3118 82.9165 91.2072 82.6358 91.9433 82.0644C92.6794 81.483 93.2402 80.6762 93.6256 79.6449C94.0213 78.6032 94.2259 77.4023 94.2392 76.0422C94.2524 74.6921 94.0764 73.5026 93.7111 72.474C93.3459 71.445 92.8009 70.6379 92.0762 70.0522C91.3516 69.4665 90.4567 69.1682 89.3916 69.1578C88.3366 69.1474 87.4413 69.4181 86.7054 69.9689C85.9798 70.5202 85.4192 71.3065 85.0237 72.328C84.6282 73.3492 84.4236 74.5551 84.4099 75.9458Z" fill="#A0D8EE"/>
<path d="M104.979 96.6117L105.294 64.4567L111.685 64.5194L111.646 68.4475L111.935 68.4503C112.225 67.8238 112.642 67.1883 113.187 66.544C113.741 65.8896 114.456 65.3484 115.333 64.9206C116.22 64.4826 117.317 64.27 118.626 64.2829C120.33 64.2996 121.898 64.7616 123.33 65.6689C124.761 66.5661 125.9 67.9121 126.744 69.7069C127.589 71.4917 127.998 73.7236 127.972 76.4031C127.946 79.0118 127.504 81.2102 126.644 82.9983C125.795 84.7765 124.646 86.1205 123.196 87.0302C121.757 87.9295 120.15 88.3706 118.375 88.3532C117.117 88.3409 116.049 88.1223 115.171 87.6975C114.302 87.2728 113.592 86.743 113.04 86.1083C112.489 85.4634 112.069 84.8149 111.781 84.1621L111.584 84.1602L111.461 96.6752L104.979 96.6117ZM111.524 76.2117C111.511 77.602 111.692 78.8168 112.067 79.8559C112.442 80.8951 112.992 81.7074 113.717 82.293C114.442 82.8687 115.327 83.1618 116.371 83.172C117.426 83.1824 118.322 82.9017 119.058 82.3303C119.794 81.7488 120.355 80.9421 120.74 79.9108C121.136 78.8691 121.341 77.6682 121.354 76.308C121.367 74.958 121.191 73.7685 120.826 72.7399C120.46 71.7109 119.915 70.9037 119.191 70.318C118.466 69.7324 117.571 69.4341 116.506 69.4236C115.451 69.4133 114.556 69.684 113.82 70.2348C113.094 70.7861 112.533 71.5723 112.138 72.5939C111.743 73.615 111.538 74.821 111.524 76.2117Z" fill="#A0D8EE"/>
<path d="M144.838 64.8443L144.79 69.7164L130.716 69.5785L130.763 64.7064L144.838 64.8443ZM134.014 59.135L140.496 59.1985L140.282 81.0006C140.276 81.5993 140.363 82.0671 140.542 82.4037C140.721 82.7306 140.973 82.9613 141.296 83.0967C141.63 83.2317 142.014 83.3013 142.451 83.3056C142.755 83.3086 143.059 83.2864 143.364 83.2386C143.669 83.1807 143.903 83.1373 144.066 83.1083L145.038 87.9445C144.712 88.0429 144.254 88.155 143.665 88.2814C143.075 88.4179 142.359 88.4969 141.517 88.5192C139.954 88.5648 138.587 88.3433 137.415 87.8547C136.253 87.3663 135.352 86.6165 134.713 85.6053C134.074 84.5938 133.767 83.322 133.792 81.7896L134.014 59.135Z" fill="#A0D8EE"/>
</g>
<defs>
<linearGradient id="paint0_linear_12151_4791" x1="0.431638" y1="-25.2476" x2="220.432" y2="175.11" gradientUnits="userSpaceOnUse">
<stop stop-color="#A0D8EE"/>
<stop offset="0.536458" stop-color="#8BD6F3" stop-opacity="0.4"/>
<stop offset="1" stop-color="#74C5E5"/>
</linearGradient>
<linearGradient id="paint1_linear_12151_4791" x1="24.0036" y1="-60.6046" x2="220.432" y2="171.181" gradientUnits="userSpaceOnUse">
<stop stop-color="#A0D8EE"/>
<stop offset="1" stop-color="#7DCDEC"/>
</linearGradient>
<clipPath id="clip0_12151_4791">
<rect width="220" height="157.143" fill="white" transform="translate(0.429688 0.288208)"/>
</clipPath>
</defs>
</svg>
