<svg width="240" height="240" viewBox="0 0 240 240" fill="none" xmlns="http://www.w3.org/2000/svg">
<rect width="240" height="240" rx="120" fill="url(#paint0_linear_12151_4643)" fill-opacity="0.5"/>
<g clip-path="url(#clip0_12151_4643)">
<path d="M84.632 50.0521L75.9365 34.9914C74.7365 32.8959 72.0671 32.2001 69.9973 33.4001C67.9189 34.6001 67.206 37.2524 68.406 39.3393L77.1015 54.4001C77.9016 55.8002 79.371 56.5738 80.8666 56.5738C81.6056 56.5738 82.3535 56.3827 83.0403 55.9914C85.1187 54.7824 85.832 52.1305 84.632 50.0521Z" fill="#A0D8EE"/>
<path d="M171.593 200.659L162.897 185.599C161.697 183.512 159.028 182.799 156.958 184.007C154.871 185.207 154.158 187.868 155.367 189.947L164.062 205.007C164.862 206.408 166.332 207.181 167.827 207.181C168.566 207.181 169.314 206.999 170.001 206.599C172.088 205.399 172.801 202.738 171.593 200.659Z" fill="#A0D8EE"/>
<path d="M54.4009 77.107L39.3402 68.4115C37.2618 67.229 34.6009 67.9244 33.4009 70.0028C32.1923 72.0812 32.9053 74.7421 34.9922 75.9421L50.0529 84.6376C50.7397 85.0374 51.4877 85.22 52.2267 85.22C53.7222 85.22 55.1921 84.4374 55.9918 83.0463C57.1922 80.9679 56.4789 78.307 54.4009 77.107Z" fill="#A0D8EE"/>
<path d="M205.008 164.061L189.947 155.366C187.868 154.183 185.208 154.879 184.008 156.957C182.808 159.036 183.52 161.696 185.599 162.896L200.66 171.592C201.346 171.992 202.094 172.174 202.833 172.174C204.329 172.174 205.799 171.392 206.598 170.001C207.799 167.922 207.086 165.261 205.008 164.061Z" fill="#A0D8EE"/>
<path d="M55.9922 156.956C54.7922 154.869 52.1228 154.173 50.0529 155.365L34.9922 164.06C32.9053 165.26 32.1923 167.921 33.4009 170C34.201 171.391 35.6705 172.173 37.166 172.173C37.905 172.173 38.6529 171.991 39.3398 171.591L54.4005 162.895C56.4878 161.695 57.2008 159.035 55.9922 156.956Z" fill="#A0D8EE"/>
<path d="M206.599 69.9996C205.399 67.9212 202.729 67.2083 200.659 68.4083L185.599 77.1038C183.512 78.3038 182.799 80.9647 184.007 83.0431C184.807 84.4342 186.277 85.2168 187.772 85.2168C188.511 85.2168 189.259 85.0342 189.946 84.6344L205.007 75.9389C207.094 74.7385 207.807 72.0776 206.599 69.9996Z" fill="#A0D8EE"/>
<path d="M83.0407 184.01C80.9538 182.818 78.2929 183.514 77.1015 185.601L68.406 200.662C67.206 202.74 67.9189 205.401 69.9973 206.601C70.6841 207.001 71.4321 207.184 72.1711 207.184C73.6666 207.184 75.1364 206.41 75.9361 205.01L84.6316 189.949C85.8321 187.871 85.1187 185.21 83.0407 184.01Z" fill="#A0D8EE"/>
<path d="M169.999 33.4025C167.92 32.211 165.259 32.9068 164.059 34.9938L155.364 50.0545C154.164 52.1329 154.877 54.7937 156.955 55.9937C157.642 56.3936 158.39 56.5762 159.129 56.5762C160.625 56.5762 162.094 55.7936 162.894 54.4024L171.59 39.3417C172.79 37.2633 172.077 34.6024 169.999 33.4025Z" fill="#A0D8EE"/>
<path d="M120.001 20C117.601 20 115.653 21.948 115.653 24.348V41.7394C115.653 44.1394 117.601 46.0873 120.001 46.0873C122.401 46.0873 124.349 44.139 124.349 41.739V24.348C124.349 21.948 122.401 20 120.001 20Z" fill="#A0D8EE"/>
<path d="M41.7341 115.652H24.3431C21.9431 115.652 19.9951 117.6 19.9951 120C19.9951 122.4 21.9431 124.348 24.3431 124.348H41.7345C44.1341 124.348 46.0821 122.4 46.0821 120C46.0821 117.6 44.1341 115.652 41.7341 115.652Z" fill="#A0D8EE"/>
<path d="M215.653 115.652H198.262C195.862 115.652 193.914 117.6 193.914 120C193.914 122.4 195.862 124.348 198.262 124.348H215.653C218.053 124.348 220.001 122.4 220.001 120C220.001 117.6 218.053 115.652 215.653 115.652Z" fill="#A0D8EE"/>
<path d="M120.001 193.913C117.601 193.913 115.653 195.861 115.653 198.261V215.652C115.653 218.052 117.601 220 120.001 220C122.401 220 124.349 218.052 124.349 215.652V198.26C124.349 195.86 122.401 193.913 120.001 193.913Z" fill="#A0D8EE"/>
</g>
<defs>
<linearGradient id="paint0_linear_12151_4643" x1="-8.71211e-07" y1="27.6923" x2="255.988" y2="244.173" gradientUnits="userSpaceOnUse">
<stop stop-color="#A0D8EE"/>
<stop offset="0.536458" stop-color="#8CD0EB" stop-opacity="0.4"/>
<stop offset="1" stop-color="#7DCDEC"/>
</linearGradient>
<clipPath id="clip0_12151_4643">
<rect width="200" height="200" fill="white" transform="translate(20 20)"/>
</clipPath>
</defs>
</svg>
