<svg width="180" height="176" viewBox="0 0 180 176" fill="none" xmlns="http://www.w3.org/2000/svg">
<g clip-path="url(#clip0_12151_4524)">
<path d="M90 173.25C42.8558 173.25 4.5 134.894 4.5 87.75C4.5 40.6058 42.8558 2.25 90 2.25C137.144 2.25 175.5 40.6058 175.5 87.75C175.5 134.894 137.144 173.25 90 173.25Z" stroke="url(#paint0_linear_12151_4524)" stroke-opacity="0.5" stroke-width="4.5"/>
<path d="M102.507 55.125H77.6738V80.0865H102.507C109.39 80.0865 114.988 74.4885 114.988 67.6058C114.988 60.723 109.388 55.125 102.507 55.125Z" fill="url(#paint1_linear_12151_4524)" fill-opacity="0.5"/>
<path d="M89.9986 16.7671C50.8576 16.7671 19.0156 48.6091 19.0156 87.7501C19.0156 126.891 50.8576 158.733 89.9986 158.733C129.14 158.733 160.982 126.891 160.982 87.7501C160.982 48.6091 129.14 16.7671 89.9986 16.7671ZM102.504 89.0866H77.6709V94.5721H106.829C109.313 94.5721 111.329 96.5881 111.329 99.0721C111.329 101.556 109.313 103.572 106.829 103.572H77.6709V124.875C77.6709 127.359 75.6549 129.375 73.1709 129.375C70.6869 129.375 68.6709 127.359 68.6709 124.875V103.57H60.5146C58.0306 103.57 56.0146 101.554 56.0146 99.0698C56.0146 96.5858 58.0306 94.5698 60.5146 94.5698H68.6709V89.0843H60.5146C58.0306 89.0843 56.0146 87.0683 56.0146 84.5843C56.0146 82.1003 58.0306 80.0843 60.5146 80.0843H68.6709V50.6251C68.6709 48.1411 70.6869 46.1251 73.1709 46.1251H102.504C114.35 46.1251 123.985 55.7618 123.985 67.6058C123.985 79.4498 114.348 89.0866 102.504 89.0866Z" fill="url(#paint2_linear_12151_4524)" fill-opacity="0.5"/>
<path d="M102.507 55.125H77.6738V80.0865H102.507C109.39 80.0865 114.988 74.4885 114.988 67.6058C114.988 60.723 109.388 55.125 102.507 55.125Z" fill="url(#paint3_linear_12151_4524)" fill-opacity="0.5"/>
<path fill-rule="evenodd" clip-rule="evenodd" d="M102.504 89.0866H77.6709V94.5721H106.829C109.313 94.5721 111.329 96.5881 111.329 99.0721C111.329 101.556 109.313 103.572 106.829 103.572H77.6709V124.875C77.6709 127.359 75.6549 129.375 73.1709 129.375C70.6869 129.375 68.6709 127.359 68.6709 124.875V103.57H60.5146C58.0306 103.57 56.0146 101.554 56.0146 99.0698C56.0146 96.5858 58.0306 94.5698 60.5146 94.5698H68.6709V89.0843H60.5146C58.0306 89.0843 56.0146 87.0683 56.0146 84.5843C56.0146 82.1003 58.0306 80.0843 60.5146 80.0843H68.6709V50.6251C68.6709 48.1411 70.6869 46.1251 73.1709 46.1251H102.504C114.35 46.1251 123.985 55.7618 123.985 67.6058C123.985 79.4498 114.348 89.0866 102.504 89.0866ZM77.6738 55.125H102.507C109.388 55.125 114.988 60.723 114.988 67.6058C114.988 74.4885 109.39 80.0865 102.507 80.0865H77.6738V55.125Z" fill="#A0D8EE"/>
</g>
<defs>
<linearGradient id="paint0_linear_12151_4524" x1="14.2942" y1="-20.3565" x2="202.555" y2="184.711" gradientUnits="userSpaceOnUse">
<stop stop-color="#A0D8EE"/>
<stop offset="1" stop-color="#7DCDEC"/>
</linearGradient>
<linearGradient id="paint1_linear_12151_4524" x1="77.6738" y1="58.0052" x2="103.948" y2="91.2198" gradientUnits="userSpaceOnUse">
<stop stop-color="#A0D8EE"/>
<stop offset="0.536458" stop-color="#8CD0EB" stop-opacity="0.4"/>
<stop offset="1" stop-color="#7DCDEC"/>
</linearGradient>
<linearGradient id="paint2_linear_12151_4524" x1="19.0156" y1="33.1478" x2="170.439" y2="161.201" gradientUnits="userSpaceOnUse">
<stop stop-color="#A0D8EE"/>
<stop offset="0.536458" stop-color="#8CD0EB" stop-opacity="0.4"/>
<stop offset="1" stop-color="#7DCDEC"/>
</linearGradient>
<linearGradient id="paint3_linear_12151_4524" x1="19.0156" y1="33.1478" x2="170.439" y2="161.201" gradientUnits="userSpaceOnUse">
<stop stop-color="#A0D8EE"/>
<stop offset="0.536458" stop-color="#8CD0EB" stop-opacity="0.4"/>
<stop offset="1" stop-color="#7DCDEC"/>
</linearGradient>
<clipPath id="clip0_12151_4524">
<rect width="180" height="175.5" fill="white"/>
</clipPath>
</defs>
</svg>
