<svg width="17" height="16" viewBox="0 0 17 16" fill="none" xmlns="http://www.w3.org/2000/svg">
<g clip-path="url(#clip0_12172_3703)">
<path d="M8.73417 0.268991L10.8654 5.29203L16.2708 5.78013C16.5094 5.80089 16.6859 6.01238 16.6651 6.2524C16.6552 6.36941 16.6002 6.4714 16.5188 6.54308L16.5191 6.54322L12.4297 10.1377L13.6391 15.4654C13.6927 15.7006 13.5465 15.9349 13.3128 15.9888C13.193 16.0165 13.0737 15.9913 12.9783 15.9286L8.3335 13.1334L3.6739 15.9376C3.46828 16.0613 3.20189 15.9939 3.07887 15.7869C3.01906 15.6864 3.00427 15.5712 3.02828 15.4654H3.02787L4.23747 10.1377L0.148078 6.54335C-0.0321809 6.38456 -0.050356 6.10877 0.107252 5.92732C0.187412 5.83502 0.297818 5.78505 0.410395 5.77891L5.80161 5.29203L7.93392 0.26626C8.02778 0.0441213 8.28277 -0.059234 8.50345 0.0352467C8.61196 0.0816678 8.69198 0.16741 8.73417 0.268991ZM10.1681 5.87421L8.3335 1.54994L6.49877 5.87421L6.49823 5.87407C6.43746 6.01756 6.30196 6.12338 6.13676 6.13785L1.48367 6.5581L4.98563 9.63623C5.11434 9.73726 5.18067 9.90766 5.14188 10.0786L4.10102 14.6631L8.10306 12.2545C8.23679 12.1703 8.41149 12.1628 8.55635 12.25L12.5661 14.6631L11.5254 10.0786L11.5258 10.0783C11.4916 9.92691 11.5388 9.76184 11.6631 9.65248L15.1835 6.5581L10.5544 6.14004C10.3905 6.13485 10.2366 6.036 10.1681 5.87421Z" fill="#252627"/>
<path d="M10.1681 5.87421L8.3335 1.54994L6.49877 5.87421L6.49823 5.87407C6.43746 6.01756 6.30196 6.12338 6.13676 6.13785L1.48367 6.5581L4.98563 9.63623C5.11434 9.73726 5.18067 9.90766 5.14188 10.0786L4.10102 14.6631L8.10306 12.2545C8.23679 12.1703 8.41149 12.1628 8.55635 12.25L12.5661 14.6631L11.5254 10.0786L11.5258 10.0783C11.4916 9.92691 11.5388 9.76184 11.6631 9.65248L15.1835 6.5581L10.5544 6.14004C10.3905 6.13485 10.2366 6.036 10.1681 5.87421Z" fill="#252627"/>
</g>
<defs>
<clipPath id="clip0_12172_3703">
<rect width="16.6667" height="16" fill="white"/>
</clipPath>
</defs>
</svg>
