<svg width="24" height="24" viewBox="0 0 24 24" fill="none" xmlns="http://www.w3.org/2000/svg">
<g opacity="0.75" clip-path="url(#clip0_12259_72)">
<path d="M20.2701 7.91001C21.2501 8.40001 21.2501 9.20005 20.2701 9.70005L18.1201 10.75L12.4401 13.5301C12.1501 13.6401 11.8101 13.6401 11.5201 13.5301L5.88011 10.75L3.73012 9.70005C2.75012 9.20005 2.75012 8.40001 3.73012 7.91001L11.5501 4.09007C11.8401 3.98007 12.1801 3.98007 12.4701 4.09007L20.2701 7.91001V7.91001Z" stroke="#525252" stroke-width="1.5" stroke-miterlimit="10" stroke-linecap="round"/>
<path d="M18.1204 10.75V15.86C18.1004 16.23 17.9804 16.58 17.7904 16.89C17.5904 17.2 17.3204 17.46 17.0004 17.64L12.4504 19.89C12.3004 19.96 12.1504 19.99 11.9904 19.99C11.8304 19.99 11.6804 19.96 11.5304 19.89L6.98038 17.64C6.66038 17.46 6.38037 17.2 6.19037 16.89C5.99037 16.58 5.88035 16.22 5.86035 15.86V10.75" stroke="#525252" stroke-width="1.5" stroke-miterlimit="10" stroke-linecap="round"/>
</g>
<defs>
<clipPath id="clip0_12259_72">
<rect width="24" height="24" fill="white"/>
</clipPath>
</defs>
</svg>
