<svg width="24" height="24" viewBox="0 0 24 24" fill="none" xmlns="http://www.w3.org/2000/svg">
<g opacity="0.75">
<path d="M8.52026 3H5.70026C4.21026 3 2.99023 4.21 2.99023 5.7V18.3C2.99023 19.79 4.20026 21 5.70026 21H18.2902C19.7802 21 21.0002 19.79 21.0002 18.3V9.3C21.0002 7.81 19.7902 6.6 18.2902 6.6H12.5602C12.2202 6.6 11.9102 6.41 11.7502 6.1L10.9402 4.49C10.4802 3.58 9.54026 3 8.52026 3V3Z" stroke="#525252" stroke-width="1.5" stroke-linecap="round" stroke-linejoin="round"/>
<path d="M18.3096 6.5999V5.6799C18.2896 4.6899 17.4896 3.8999 16.4996 3.8999H11.0996" stroke="#525252" stroke-width="1.5" stroke-linecap="round" stroke-linejoin="round"/>
<path d="M7.49023 16.5H11.1002" stroke="#525252" stroke-width="1.5" stroke-linecap="round" stroke-linejoin="round"/>
</g>
</svg>
